<mxfile host="app.diagrams.net" modified="2023-08-04T23:21:34.377Z" agent="Mozilla/5.0 (Windows NT 10.0; Win64; x64) AppleWebKit/537.36 (KHTML, like Gecko) Chrome/115.0.0.0 Safari/537.36" etag="DS0HGIUdGBs4gK4HXf4v" version="21.6.6" type="github">
  <diagram name="Page-1" id="e7e014a7-5840-1c2e-5031-d8a46d1fe8dd">
    <mxGraphModel dx="1687" dy="920" grid="1" gridSize="10" guides="1" tooltips="1" connect="1" arrows="1" fold="1" page="1" pageScale="1" pageWidth="1169" pageHeight="826" background="none" math="0" shadow="0">
      <root>
        <mxCell id="0" />
        <mxCell id="1" parent="0" />
        <mxCell id="2" value="Usuario" style="swimlane;whiteSpace=wrap" parent="1" vertex="1">
          <mxGeometry x="164.5" y="128" width="275.5" height="570" as="geometry" />
        </mxCell>
        <mxCell id="vYMIr0RcVyD7OqrxwJxl-45" style="edgeStyle=orthogonalEdgeStyle;rounded=0;orthogonalLoop=1;jettySize=auto;html=1;exitX=0.5;exitY=1;exitDx=0;exitDy=0;entryX=0.5;entryY=0;entryDx=0;entryDy=0;" edge="1" parent="2" source="5" target="7">
          <mxGeometry relative="1" as="geometry" />
        </mxCell>
        <mxCell id="5" value="" style="ellipse;shape=startState;fillColor=#f8cecc;strokeColor=#b85450;" parent="2" vertex="1">
          <mxGeometry x="100" y="40" width="30" height="30" as="geometry" />
        </mxCell>
        <mxCell id="7" value="Ingreso de Datos" style="" parent="2" vertex="1">
          <mxGeometry x="60" y="110" width="110" height="50" as="geometry" />
        </mxCell>
        <mxCell id="vYMIr0RcVyD7OqrxwJxl-43" value="Verificación de &#xa;Datos" style="" vertex="1" parent="2">
          <mxGeometry x="60" y="222" width="110" height="50" as="geometry" />
        </mxCell>
        <mxCell id="vYMIr0RcVyD7OqrxwJxl-44" style="edgeStyle=orthogonalEdgeStyle;rounded=0;orthogonalLoop=1;jettySize=auto;html=1;entryX=0.5;entryY=0;entryDx=0;entryDy=0;" edge="1" parent="2" source="7" target="vYMIr0RcVyD7OqrxwJxl-43">
          <mxGeometry relative="1" as="geometry" />
        </mxCell>
        <mxCell id="vYMIr0RcVyD7OqrxwJxl-61" style="edgeStyle=orthogonalEdgeStyle;rounded=0;orthogonalLoop=1;jettySize=auto;html=1;exitX=0.5;exitY=1;exitDx=0;exitDy=0;entryX=0.5;entryY=0;entryDx=0;entryDy=0;" edge="1" parent="2" source="vYMIr0RcVyD7OqrxwJxl-58" target="vYMIr0RcVyD7OqrxwJxl-60">
          <mxGeometry relative="1" as="geometry" />
        </mxCell>
        <mxCell id="vYMIr0RcVyD7OqrxwJxl-58" value="Mostrar Operación Exitosa" style="whiteSpace=wrap;html=1;" vertex="1" parent="2">
          <mxGeometry x="60" y="322" width="120" height="60" as="geometry" />
        </mxCell>
        <mxCell id="vYMIr0RcVyD7OqrxwJxl-60" value="" style="ellipse;shape=startState;fillColor=none;strokeColor=#b85450;" vertex="1" parent="2">
          <mxGeometry x="105" y="482" width="30" height="30" as="geometry" />
        </mxCell>
        <mxCell id="vYMIr0RcVyD7OqrxwJxl-63" value="" style="ellipse;shape=startState;fillColor=#fad9d5;strokeColor=#ae4132;" vertex="1" parent="2">
          <mxGeometry x="108.75" y="486" width="22.5" height="22" as="geometry" />
        </mxCell>
        <mxCell id="3" value="Sistema" style="swimlane;whiteSpace=wrap" parent="1" vertex="1">
          <mxGeometry x="444.5" y="128" width="280" height="570" as="geometry">
            <mxRectangle x="444.5" y="128" width="90" height="30" as="alternateBounds" />
          </mxGeometry>
        </mxCell>
        <mxCell id="vYMIr0RcVyD7OqrxwJxl-56" value="" style="edgeStyle=orthogonalEdgeStyle;rounded=0;orthogonalLoop=1;jettySize=auto;html=1;" edge="1" parent="3" source="vYMIr0RcVyD7OqrxwJxl-51" target="vYMIr0RcVyD7OqrxwJxl-55">
          <mxGeometry relative="1" as="geometry" />
        </mxCell>
        <mxCell id="vYMIr0RcVyD7OqrxwJxl-51" value="" style="rhombus;whiteSpace=wrap;html=1;" vertex="1" parent="3">
          <mxGeometry x="65" y="207" width="80" height="80" as="geometry" />
        </mxCell>
        <mxCell id="vYMIr0RcVyD7OqrxwJxl-55" value="Almacenar Datos" style="whiteSpace=wrap;html=1;" vertex="1" parent="3">
          <mxGeometry x="45" y="322" width="120" height="60" as="geometry" />
        </mxCell>
        <mxCell id="vYMIr0RcVyD7OqrxwJxl-64" value="Datos Correctos" style="text;html=1;align=center;verticalAlign=middle;resizable=0;points=[];autosize=1;strokeColor=none;fillColor=none;" vertex="1" parent="3">
          <mxGeometry x="115.5" y="287" width="110" height="30" as="geometry" />
        </mxCell>
        <mxCell id="vYMIr0RcVyD7OqrxwJxl-52" value="" style="edgeStyle=orthogonalEdgeStyle;rounded=0;orthogonalLoop=1;jettySize=auto;html=1;" edge="1" parent="1" source="vYMIr0RcVyD7OqrxwJxl-43" target="vYMIr0RcVyD7OqrxwJxl-51">
          <mxGeometry relative="1" as="geometry" />
        </mxCell>
        <mxCell id="vYMIr0RcVyD7OqrxwJxl-53" style="edgeStyle=orthogonalEdgeStyle;rounded=0;orthogonalLoop=1;jettySize=auto;html=1;exitX=0.5;exitY=0;exitDx=0;exitDy=0;entryX=1;entryY=0.5;entryDx=0;entryDy=0;" edge="1" parent="1" source="vYMIr0RcVyD7OqrxwJxl-51" target="7">
          <mxGeometry relative="1" as="geometry" />
        </mxCell>
        <mxCell id="vYMIr0RcVyD7OqrxwJxl-54" value="Datos Incorrectos" style="edgeLabel;html=1;align=center;verticalAlign=middle;resizable=0;points=[];" vertex="1" connectable="0" parent="vYMIr0RcVyD7OqrxwJxl-53">
          <mxGeometry x="-0.3345" y="-2" relative="1" as="geometry">
            <mxPoint x="74" y="49" as="offset" />
          </mxGeometry>
        </mxCell>
        <mxCell id="vYMIr0RcVyD7OqrxwJxl-59" style="edgeStyle=orthogonalEdgeStyle;rounded=0;orthogonalLoop=1;jettySize=auto;html=1;exitX=0;exitY=0.5;exitDx=0;exitDy=0;entryX=1;entryY=0.5;entryDx=0;entryDy=0;" edge="1" parent="1" source="vYMIr0RcVyD7OqrxwJxl-55" target="vYMIr0RcVyD7OqrxwJxl-58">
          <mxGeometry relative="1" as="geometry" />
        </mxCell>
      </root>
    </mxGraphModel>
  </diagram>
</mxfile>
